<svg version="1.1" id="Layer_1" xmlns="http://www.w3.org/2000/svg" xmlns:xlink="http://www.w3.org/1999/xlink" x="0px" y="0px"
	 width="100%" viewBox="0 0 462 121" enable-background="new 0 0 462 121" xml:space="preserve">
<path fill="#FCFDFF" opacity="1.000000" stroke="none" 
	d="
M331.000000,122.000000 
	C220.666702,122.000000 110.833397,122.000000 1.000074,122.000000 
	C1.000049,81.666710 1.000049,41.333424 1.000025,1.000101 
	C154.999908,1.000067 308.999817,1.000067 462.999817,1.000034 
	C462.999878,41.333233 462.999878,81.666466 462.999939,121.999847 
	C419.166656,122.000000 375.333344,122.000000 331.000000,122.000000 
M91.401443,56.041172 
	C91.256027,56.152706 91.110611,56.264240 90.165756,56.190517 
	C89.892570,56.176510 89.619392,56.162502 89.307922,55.413227 
	C89.267029,54.926537 89.226143,54.439850 89.676933,53.382229 
	C90.667763,51.329453 91.658600,49.276676 93.148415,46.190140 
	C90.502312,46.660973 87.887352,46.414719 87.369568,47.340904 
	C85.061714,51.469044 82.232048,54.232468 76.661880,53.589687 
	C78.367126,55.470165 80.014145,56.402809 81.516090,57.528950 
	C89.447746,63.476013 97.473679,69.310333 105.172363,75.547340 
	C107.537773,77.463646 109.327599,80.344025 110.759285,83.105301 
	C113.551590,88.490738 114.619316,89.080666 121.228638,87.020500 
	C119.319092,79.172714 121.830406,69.791954 112.940010,64.432396 
	C108.439621,67.748322 105.421654,63.664925 102.669991,61.839523 
	C104.455894,60.789471 107.893219,59.241913 107.751801,58.772491 
	C106.999977,56.276920 105.350983,54.051636 103.569489,50.964989 
	C101.048431,57.499119 101.048431,57.499119 98.343285,55.493187 
	C98.889946,53.940792 99.760056,52.413628 99.883720,50.828239 
	C99.987778,49.494118 99.223557,48.092266 98.843712,46.720390 
	C97.421532,47.461853 95.459167,47.851768 94.697067,49.022808 
	C93.379478,51.047405 92.806679,53.556705 91.401443,56.041172 
M296.322266,60.694984 
	C298.268829,68.098701 300.226990,75.499397 302.158539,82.907013 
	C303.991364,89.935867 304.071472,89.992073 311.698547,88.356255 
	C311.698547,71.662926 311.698547,54.965958 311.698547,38.375298 
	C309.252625,38.375298 307.191498,38.375298 304.705078,38.375298 
	C304.705078,46.953472 304.705078,55.140793 304.705078,63.328114 
	C304.312714,63.396156 303.920380,63.464199 303.528015,63.532242 
	C301.373322,55.128338 299.218628,46.724434 297.080688,38.385998 
	C293.511993,38.385998 290.298340,38.385998 287.145355,38.385998 
	C287.145355,55.374702 287.145355,71.954620 287.145355,88.717361 
	C289.491241,88.717361 291.548370,88.717361 294.192688,88.717361 
	C294.192688,78.974457 294.192688,69.528122 294.817780,60.075863 
	C295.232941,60.038624 295.648071,60.001385 296.322266,60.694984 
M49.224945,40.112389 
	C48.149246,40.143562 47.073544,40.174736 45.334415,40.059475 
	C44.199554,41.309143 43.064693,42.558807 41.263897,43.936363 
	C40.497738,44.285290 39.731579,44.634216 38.278603,45.418377 
	C36.678631,46.028996 34.542904,46.182625 33.567577,47.326054 
	C28.146767,53.681183 23.003111,60.272949 17.777309,66.793915 
	C17.049692,67.701874 16.027184,68.588112 15.805519,69.626251 
	C15.586280,70.653046 16.208426,71.859489 16.173637,71.704475 
	C14.927757,75.821350 13.967991,78.992798 13.008224,82.164238 
	C13.516723,82.369362 14.025221,82.574486 14.533720,82.779610 
	C16.828384,79.957863 19.123049,77.136124 21.417713,74.314384 
	C21.752466,74.486206 22.087217,74.658028 22.421970,74.829842 
	C21.151503,78.778328 19.881035,82.726814 18.562731,86.823967 
	C19.647741,86.878952 20.635086,86.961823 21.623289,86.973747 
	C28.098822,87.051926 28.801573,86.120338 28.191347,79.424309 
	C27.912380,76.363190 28.143904,73.255539 28.143904,70.168991 
	C28.803148,70.024429 29.462393,69.879875 30.121635,69.735313 
	C32.590343,74.960442 34.580956,80.340950 33.884407,86.836029 
	C35.307602,86.903885 36.604828,87.013557 37.902512,87.019295 
	C43.408585,87.043625 44.184914,85.984734 42.069118,80.882515 
	C40.862099,77.971802 39.201210,75.250992 37.957851,72.353210 
	C36.435608,68.805481 34.154800,65.329643 35.437225,60.938808 
	C40.505241,69.792755 45.319653,78.203644 50.218502,86.762054 
	C52.528576,86.762054 55.285862,86.762054 59.450954,86.762054 
	C57.620014,83.802551 56.374329,81.638702 54.984779,79.571564 
	C51.032581,73.692162 47.021709,67.852196 43.800121,61.978275 
	C44.308327,61.923767 44.816536,61.869263 45.779915,62.310764 
	C47.954922,65.396767 49.914112,68.666885 52.354031,71.526886 
	C56.305351,76.158501 60.572296,80.520851 64.552971,85.579773 
	C65.035294,86.062111 65.517616,86.544449 66.849937,87.247551 
	C69.097931,87.247551 71.345924,87.247551 75.072746,87.247551 
	C73.151550,84.368118 72.259644,82.460449 70.862610,81.054832 
	C67.831612,78.005203 64.515839,75.240753 61.363827,72.308815 
	C52.299179,63.877064 44.804718,54.660648 46.692066,41.001175 
	C47.187031,41.333561 47.681995,41.665943 48.034721,42.855991 
	C48.579079,45.897736 48.275192,49.494522 49.832035,51.873749 
	C53.963074,58.186977 58.521240,64.320511 63.623108,69.869400 
	C68.318413,74.976089 74.272552,78.916328 79.048630,83.960770 
	C82.623993,87.737030 84.805092,88.773895 90.540535,85.814789 
	C88.069633,83.147369 85.999535,80.406403 83.437004,78.250854 
	C77.971352,73.653267 71.946037,69.685898 66.735413,64.831932 
	C62.934105,61.290810 59.586952,57.027290 56.961315,52.544605 
	C55.312496,49.729610 56.455021,46.952736 60.865871,48.231907 
	C59.308769,55.015465 63.824333,58.566032 67.992188,61.971077 
	C73.526527,66.492516 79.528023,70.438286 85.132500,74.879143 
	C88.621033,77.643372 92.218307,80.499916 94.913437,83.976562 
	C98.128647,88.124084 99.837418,89.028625 106.703743,86.189751 
	C103.514580,82.465347 101.061302,78.516266 97.628693,75.808846 
	C89.548752,69.435921 80.934387,63.744896 72.696609,57.564259 
	C70.928566,56.237736 69.838783,54.007214 67.969078,51.588348 
	C81.526642,51.531136 81.526642,51.531136 83.965508,46.670410 
	C79.629745,46.670410 75.392265,46.706894 71.156113,46.647758 
	C69.915611,46.630440 68.496948,46.673786 67.474571,46.114342 
	C64.410652,44.437786 61.686340,41.984795 58.474632,40.783726 
	C55.932247,39.832958 52.866272,40.282288 49.224945,40.112389 
M342.259857,67.642876 
	C340.918121,65.618095 339.576385,63.593323 338.108459,61.378078 
	C338.528534,60.937824 339.252350,60.303619 339.828705,59.555775 
	C344.999176,52.846954 342.226288,40.161995 334.803619,38.753151 
	C329.461212,37.739147 323.771393,38.555683 318.319122,38.555683 
	C318.319122,55.406223 318.319122,71.963974 318.319122,89.017014 
	C320.542542,89.017014 322.506012,88.902756 324.452759,89.034821 
	C342.414062,90.253281 344.174194,83.199860 342.259857,67.642876 
M174.741760,88.813828 
	C185.398712,85.032127 187.566193,70.596741 178.631393,61.656548 
	C179.257156,60.981697 179.952087,60.344227 180.516129,59.606647 
	C186.236237,52.126675 182.549927,39.349918 174.102951,38.244545 
	C169.238434,37.607975 164.222427,38.129063 159.133026,38.129063 
	C159.133026,55.236149 159.133026,71.930214 159.133026,88.940659 
	C164.277451,88.940659 169.078949,88.940659 174.741760,88.813828 
M385.475433,37.888538 
	C379.219788,39.755024 376.750061,42.547550 376.534241,49.365311 
	C376.244965,58.505543 376.222748,67.666039 376.464172,76.807854 
	C376.694824,85.541985 380.946289,89.527435 389.123047,89.377663 
	C396.923126,89.234787 400.845398,85.083145 400.965912,76.523430 
	C401.083038,68.206474 401.030365,59.886436 400.986633,51.568100 
	C400.930878,40.966843 396.939514,37.264935 385.475433,37.888538 
M256.989960,77.480072 
	C256.989960,81.229630 256.989960,84.979195 256.989960,89.020645 
	C261.065796,89.020645 264.378571,89.023994 267.691315,89.018829 
	C268.856171,89.017006 270.029419,89.079926 271.184479,88.966713 
	C277.028931,88.393852 280.862762,84.893585 281.030731,78.975243 
	C281.323334,68.666176 281.310638,58.337372 281.030579,48.027580 
	C280.878693,42.436012 277.517792,38.747383 272.165100,38.222595 
	C267.284332,37.744064 262.319672,38.121201 256.989929,38.121201 
	C256.989929,51.254028 256.989929,63.870613 256.989960,77.480072 
M371.835510,58.520306 
	C371.832855,55.687595 371.906555,52.852360 371.813110,50.022648 
	C371.543579,41.862099 367.620880,37.806892 359.944275,37.651173 
	C351.901062,37.488014 347.576691,41.390270 347.335754,49.727104 
	C347.071167,58.882843 347.073334,68.057693 347.330780,77.213760 
	C347.566071,85.581512 351.854584,89.491043 359.884125,89.349968 
	C367.537079,89.215515 371.569733,85.144478 371.794342,77.009201 
	C371.955261,71.181503 371.831909,65.345955 371.835510,58.520306 
M198.767288,81.887321 
	C197.849777,79.768295 196.223602,77.676575 196.140732,75.525398 
	C195.826752,67.374023 196.012619,59.203392 196.011856,51.039963 
	C196.011444,46.780285 196.011780,42.520603 196.011780,38.424423 
	C192.873001,38.424423 190.491669,38.424423 188.003372,38.424423 
	C188.003372,51.863148 187.824417,64.856438 188.070389,77.841682 
	C188.218277,85.649658 192.473938,89.421005 200.093018,89.379532 
	C207.631378,89.338493 211.751221,85.459686 211.928955,77.625580 
	C212.148071,67.967720 212.006271,58.301655 212.017838,48.639137 
	C212.021957,45.202412 212.018478,41.765682 212.018478,38.254356 
	C209.086670,38.254356 206.835632,38.254356 204.087738,38.254356 
	C204.087738,40.151871 204.087784,41.776337 204.087738,43.400799 
	C204.087448,54.396439 204.070435,65.392120 204.097366,76.387695 
	C204.105011,79.512825 203.670685,82.182426 198.767288,81.887321 
M417.072998,68.534920 
	C418.357025,71.494354 420.180420,74.368637 420.667480,77.453888 
	C420.870728,78.741356 418.231384,80.477585 416.884521,82.009781 
	C415.523804,80.674980 413.923798,79.499313 412.891083,77.946388 
	C412.259216,76.996254 412.498260,75.466942 412.361145,74.322571 
	C409.791260,74.322571 407.565399,74.322571 405.247772,74.322571 
	C405.182129,75.703033 405.060425,76.691139 405.100250,77.672684 
	C405.417419,85.481071 409.393463,89.394203 416.926727,89.352852 
	C424.783203,89.309731 428.658142,85.302422 429.038818,77.344467 
	C429.365936,70.506821 425.972107,65.727333 421.294495,61.360046 
	C418.767792,59.000992 416.004639,56.568584 414.467194,53.591385 
	C413.441742,51.605644 414.142334,48.551231 414.640778,46.090622 
	C414.753967,45.531727 418.048645,44.773327 418.461395,45.274418 
	C419.795837,46.894405 420.466156,49.060093 421.403168,51.010323 
	C421.542114,51.299557 421.739075,51.560917 421.928619,51.866478 
	C424.132080,51.866478 426.340820,51.866478 428.505005,51.866478 
	C429.358795,42.376904 425.568481,37.733376 417.275146,37.656494 
	C409.061737,37.580353 404.502197,42.434139 405.386505,51.149452 
	C405.704346,54.281975 407.126099,57.587360 408.925262,60.209148 
	C410.954956,63.166862 413.977570,65.443237 417.072998,68.534920 
M448.413544,37.985363 
	C442.842224,37.985363 437.270905,37.985363 431.831299,37.985363 
	C431.831299,40.826618 431.831299,42.881371 431.831299,45.061981 
	C434.647705,45.235565 437.072327,45.385002 440.025757,45.567028 
	C440.025757,60.183208 440.025757,74.398827 440.025757,88.626663 
	C442.973907,88.626663 445.349457,88.626663 448.289612,88.626663 
	C448.289612,74.040810 448.289612,59.838173 448.289612,45.517155 
	C451.266663,45.313873 453.678619,45.149174 456.141235,44.981018 
	C456.141235,42.453346 456.141235,40.376991 456.141235,37.985363 
	C453.674194,37.985363 451.525879,37.985363 448.413544,37.985363 
M239.879639,51.510063 
	C239.879639,47.082760 239.879639,42.655453 239.879639,38.250759 
	C236.868195,38.250759 234.600037,38.250759 232.134262,38.250759 
	C232.134262,55.201225 232.134262,71.881104 232.134262,88.711258 
	C239.169708,88.711258 245.893555,88.711258 252.704422,88.711258 
	C252.704422,86.333679 252.704422,84.276535 252.704422,81.557770 
	C248.341446,81.557770 244.294312,81.557770 239.879562,81.557770 
	C239.879562,71.430183 239.879562,61.968121 239.879639,51.510063 
M225.879776,44.613579 
	C225.879776,42.513309 225.879776,40.413040 225.879776,38.378910 
	C222.809082,38.378910 220.421631,38.378910 218.065674,38.378910 
	C218.065674,55.351009 218.065674,71.918129 218.065674,88.702194 
	C220.702942,88.702194 223.077637,88.702194 225.879654,88.702194 
	C225.879654,74.119141 225.879654,59.854462 225.879776,44.613579 
M140.780807,41.500237 
	C140.780731,36.015072 140.919159,30.523993 140.685410,25.048805 
	C140.625305,23.640711 139.392990,22.282660 138.699188,20.901619 
	C138.011810,22.291597 136.742294,23.675278 136.727188,25.072525 
	C136.578003,38.866924 136.636673,52.663574 136.636932,66.459587 
	C136.637131,76.931259 136.578979,87.403778 136.729370,97.873299 
	C136.744522,98.928123 138.022812,99.964798 138.714905,101.009895 
	C139.402542,99.956749 140.288040,98.976799 140.713501,97.826653 
	C141.038162,96.949081 140.780716,95.855843 140.780731,94.858543 
	C140.780823,77.405754 140.780670,59.952969 140.780807,41.500237 
z"/>
<path fill="#127EDC" opacity="1.000000" stroke="none" 
	d="
M64.705978,84.996887 
	C60.572296,80.520851 56.305351,76.158501 52.354031,71.526886 
	C49.914112,68.666885 47.954922,65.396767 45.531349,61.684998 
	C44.445969,58.257347 43.609158,55.455456 42.832657,52.241562 
	C42.756599,50.718544 42.620232,49.607525 42.483860,48.496510 
	C42.134735,48.512577 41.785610,48.528648 41.436489,48.544720 
	C41.289524,49.619743 41.142563,50.694771 40.671989,52.001312 
	C41.243561,55.487453 42.138748,58.742081 43.033932,61.996708 
	C47.021709,67.852196 51.032581,73.692162 54.984779,79.571564 
	C56.374329,81.638702 57.620014,83.802551 59.450954,86.762054 
	C55.285862,86.762054 52.528576,86.762054 50.218502,86.762054 
	C45.319653,78.203644 40.505241,69.792755 35.437225,60.938808 
	C34.154800,65.329643 36.435608,68.805481 37.957851,72.353210 
	C39.201210,75.250992 40.862099,77.971802 42.069118,80.882515 
	C44.184914,85.984734 43.408585,87.043625 37.902512,87.019295 
	C36.604828,87.013557 35.307602,86.903885 33.884407,86.836029 
	C34.580956,80.340950 32.590343,74.960442 30.121635,69.735313 
	C29.462393,69.879875 28.803148,70.024429 28.143904,70.168991 
	C28.143904,73.255539 27.912380,76.363190 28.191347,79.424309 
	C28.801573,86.120338 28.098822,87.051926 21.623289,86.973747 
	C20.635086,86.961823 19.647741,86.878952 18.562731,86.823967 
	C19.881035,82.726814 21.151503,78.778328 22.421970,74.829842 
	C22.087217,74.658028 21.752466,74.486206 21.417713,74.314384 
	C19.123049,77.136124 16.828384,79.957863 14.533720,82.779610 
	C14.025221,82.574486 13.516723,82.369362 13.008224,82.164238 
	C13.967991,78.992798 14.927757,75.821350 16.173637,71.704475 
	C16.208426,71.859489 15.586280,70.653046 15.805519,69.626251 
	C16.027184,68.588112 17.049692,67.701874 17.777309,66.793915 
	C23.003111,60.272949 28.146767,53.681183 33.567577,47.326054 
	C34.542904,46.182625 36.678631,46.028996 38.905464,45.332985 
	C40.190331,45.657890 40.848339,46.068184 41.929832,46.742535 
	C41.929832,45.415154 41.929832,44.611816 41.929832,43.808475 
	C43.064693,42.558807 44.199554,41.309143 45.678139,40.369896 
	C46.021862,40.680321 46.059826,41.153816 46.059826,41.153816 
	C44.804718,54.660648 52.299179,63.877064 61.363827,72.308815 
	C64.515839,75.240753 67.831612,78.005203 70.862610,81.054832 
	C72.259644,82.460449 73.151550,84.368118 75.072746,87.247551 
	C71.345924,87.247551 69.097931,87.247551 66.408203,86.870346 
	C65.546303,85.994392 65.126144,85.495644 64.705978,84.996887 
z"/>
<path fill="#127EDC" opacity="1.000000" stroke="none" 
	d="
M50.032803,40.109894 
	C52.866272,40.282288 55.932247,39.832958 58.474632,40.783726 
	C61.686340,41.984795 64.410652,44.437786 67.474571,46.114342 
	C68.496948,46.673786 69.915611,46.630440 71.156113,46.647758 
	C75.392265,46.706894 79.629745,46.670410 83.965508,46.670410 
	C81.526642,51.531136 81.526642,51.531136 67.969078,51.588348 
	C69.838783,54.007214 70.928566,56.237736 72.696609,57.564259 
	C80.934387,63.744896 89.548752,69.435921 97.628693,75.808846 
	C101.061302,78.516266 103.514580,82.465347 106.703743,86.189751 
	C99.837418,89.028625 98.128647,88.124084 94.913437,83.976562 
	C92.218307,80.499916 88.621033,77.643372 85.132500,74.879143 
	C79.528023,70.438286 73.526527,66.492516 67.992188,61.971077 
	C63.824333,58.566032 59.308769,55.015465 60.865871,48.231907 
	C56.455021,46.952736 55.312496,49.729610 56.961315,52.544605 
	C59.586952,57.027290 62.934105,61.290810 66.735413,64.831932 
	C71.946037,69.685898 77.971352,73.653267 83.437004,78.250854 
	C85.999535,80.406403 88.069633,83.147369 90.540535,85.814789 
	C84.805092,88.773895 82.623993,87.737030 79.048630,83.960770 
	C74.272552,78.916328 68.318413,74.976089 63.623108,69.869400 
	C58.521240,64.320511 53.963074,58.186977 49.832035,51.873749 
	C48.275192,49.494522 48.579079,45.897736 48.401443,42.382156 
	C49.189709,41.308849 49.611256,40.709370 50.032803,40.109894 
z"/>
<path fill="#0E7CDB" opacity="1.000000" stroke="none" 
	d="
M294.192688,60.081783 
	C294.192688,69.528122 294.192688,78.974457 294.192688,88.717361 
	C291.548370,88.717361 289.491241,88.717361 287.145355,88.717361 
	C287.145355,71.954620 287.145355,55.374702 287.145355,38.385998 
	C290.298340,38.385998 293.511993,38.385998 297.080688,38.385998 
	C299.218628,46.724434 301.373322,55.128338 303.528015,63.532242 
	C303.920380,63.464199 304.312714,63.396156 304.705078,63.328114 
	C304.705078,55.140793 304.705078,46.953472 304.705078,38.375298 
	C307.191498,38.375298 309.252625,38.375298 311.698547,38.375298 
	C311.698547,54.965958 311.698547,71.662926 311.698547,88.356255 
	C304.071472,89.992073 303.991364,89.935867 302.158539,82.907013 
	C300.226990,75.499397 298.268829,68.098701 296.236603,59.955559 
	C295.774109,57.979202 295.397308,56.742271 295.020508,55.505337 
	C294.646301,55.588989 294.272095,55.672642 293.897919,55.756294 
	C293.996155,57.198124 294.094421,58.639954 294.192688,60.081783 
z"/>
<path fill="#0C7ADB" opacity="1.000000" stroke="none" 
	d="
M342.381226,68.042160 
	C344.174194,83.199860 342.414062,90.253281 324.452759,89.034821 
	C322.506012,88.902756 320.542542,89.017014 318.319122,89.017014 
	C318.319122,71.963974 318.319122,55.406223 318.319122,38.555683 
	C323.771393,38.555683 329.461212,37.739147 334.803619,38.753151 
	C342.226288,40.161995 344.999176,52.846954 339.828705,59.555775 
	C339.252350,60.303619 338.528534,60.937824 338.108459,61.378078 
	C339.576385,63.593323 340.918121,65.618095 342.381226,68.042160 
M334.287933,68.515572 
	C331.882507,67.412216 329.477081,66.308861 326.419556,64.906380 
	C326.419556,71.488243 326.419556,76.476822 326.419556,81.414864 
	C334.017853,82.162270 334.991577,81.317223 334.941376,74.230545 
	C334.929749,72.591408 334.708588,70.953751 334.287933,68.515572 
M328.377960,58.776554 
	C334.471100,58.914978 334.688110,54.986397 333.899994,49.030930 
	C333.282593,44.365131 329.738281,44.876678 325.310944,46.048923 
	C326.075439,50.378136 326.812378,54.551182 328.377960,58.776554 
z"/>
<path fill="#0C7ADB" opacity="1.000000" stroke="none" 
	d="
M174.311111,88.877243 
	C169.078949,88.940659 164.277451,88.940659 159.133026,88.940659 
	C159.133026,71.930214 159.133026,55.236149 159.133026,38.129063 
	C164.222427,38.129063 169.238434,37.607975 174.102951,38.244545 
	C182.549927,39.349918 186.236237,52.126675 180.516129,59.606647 
	C179.952087,60.344227 179.257156,60.981697 178.631393,61.656548 
	C187.566193,70.596741 185.398712,85.032127 174.311111,88.877243 
M174.158936,67.252647 
	C171.889664,66.738258 169.620407,66.223877 167.118454,65.656746 
	C167.118454,71.513077 167.118454,76.404762 167.118454,81.237907 
	C174.358139,82.324181 175.759384,81.283936 175.672287,74.739830 
	C175.641922,72.457268 175.031784,70.182434 174.158936,67.252647 
M166.755615,53.384659 
	C166.831177,54.997929 166.906738,56.611195 167.054184,59.759434 
	C169.985367,58.384014 173.509995,57.800819 173.972275,56.284218 
	C174.859802,53.372437 174.612396,49.719608 173.589920,46.812363 
	C173.172272,45.624828 169.515930,45.576332 166.755356,44.859676 
	C166.755356,48.191528 166.755356,50.327347 166.755615,53.384659 
z"/>
<path fill="#117DDC" opacity="1.000000" stroke="none" 
	d="
M385.861450,37.839592 
	C396.939514,37.264935 400.930878,40.966843 400.986633,51.568100 
	C401.030365,59.886436 401.083038,68.206474 400.965912,76.523430 
	C400.845398,85.083145 396.923126,89.234787 389.123047,89.377663 
	C380.946289,89.527435 376.694824,85.541985 376.464172,76.807854 
	C376.222748,67.666039 376.244965,58.505543 376.534241,49.365311 
	C376.750061,42.547550 379.219788,39.755024 385.861450,37.839592 
M392.946411,57.548016 
	C392.944672,55.214943 392.970245,52.881447 392.934174,50.548904 
	C392.890350,47.715332 392.530457,45.050465 388.790314,44.986359 
	C384.936768,44.920307 384.706482,47.618649 384.706512,50.460499 
	C384.706665,59.126236 384.703766,67.791977 384.707947,76.457710 
	C384.709290,79.264130 384.836853,82.020950 388.708710,82.014702 
	C392.437286,82.008690 392.915070,79.396072 392.930847,76.532921 
	C392.963898,70.533745 392.944336,64.534279 392.946411,57.548016 
z"/>
<path fill="#0E7CDB" opacity="1.000000" stroke="none" 
	d="
M256.989929,76.983635 
	C256.989929,63.870613 256.989929,51.254028 256.989929,38.121201 
	C262.319672,38.121201 267.284332,37.744064 272.165100,38.222595 
	C277.517792,38.747383 280.878693,42.436012 281.030579,48.027580 
	C281.310638,58.337372 281.323334,68.666176 281.030731,78.975243 
	C280.862762,84.893585 277.028931,88.393852 271.184479,88.966713 
	C270.029419,89.079926 268.856171,89.017006 267.691315,89.018829 
	C264.378571,89.023994 261.065796,89.020645 256.989960,89.020645 
	C256.989960,84.979195 256.989960,81.229630 256.989929,76.983635 
M265.048828,47.133080 
	C265.032440,57.406467 264.944397,67.680885 265.091675,77.951920 
	C265.109772,79.213898 266.665771,81.608368 267.032440,81.519150 
	C269.064240,81.024757 271.053589,80.084969 272.818512,78.931908 
	C273.339722,78.591385 273.168854,77.062569 273.171631,76.077904 
	C273.195129,67.792702 273.242310,59.506878 273.165741,51.222321 
	C273.112854,45.502319 270.871185,44.159340 265.048828,47.133080 
z"/>
<path fill="#0D7BDB" opacity="1.000000" stroke="none" 
	d="
M371.835449,59.017105 
	C371.831909,65.345955 371.955261,71.181503 371.794342,77.009201 
	C371.569733,85.144478 367.537079,89.215515 359.884125,89.349968 
	C351.854584,89.491043 347.566071,85.581512 347.330780,77.213760 
	C347.073334,68.057693 347.071167,58.882843 347.335754,49.727104 
	C347.576691,41.390270 351.901062,37.488014 359.944275,37.651173 
	C367.620880,37.806892 371.543579,41.862099 371.813110,50.022648 
	C371.906555,52.852360 371.832855,55.687595 371.835449,59.017105 
M355.305511,53.700401 
	C355.305542,61.032623 355.297546,68.364861 355.309418,75.697060 
	C355.314423,78.778938 355.179962,82.111618 359.628784,82.026680 
	C364.035309,81.942558 363.812286,78.540817 363.846893,75.516754 
	C363.900238,70.851402 363.862122,66.184998 363.861298,61.519035 
	C363.860626,57.852932 363.893890,54.186337 363.843933,50.520889 
	C363.805298,47.684711 363.373352,45.036274 359.666687,44.947731 
	C355.985291,44.859787 355.314911,47.307140 355.307953,50.265671 
	C355.306000,51.098873 355.306519,51.932083 355.305511,53.700401 
z"/>
<path fill="#107DDB" opacity="1.000000" stroke="none" 
	d="
M199.186127,81.942711 
	C203.670685,82.182426 204.105011,79.512825 204.097366,76.387695 
	C204.070435,65.392120 204.087448,54.396439 204.087738,43.400799 
	C204.087784,41.776337 204.087738,40.151871 204.087738,38.254356 
	C206.835632,38.254356 209.086670,38.254356 212.018478,38.254356 
	C212.018478,41.765682 212.021957,45.202412 212.017838,48.639137 
	C212.006271,58.301655 212.148071,67.967720 211.928955,77.625580 
	C211.751221,85.459686 207.631378,89.338493 200.093018,89.379532 
	C192.473938,89.421005 188.218277,85.649658 188.070389,77.841682 
	C187.824417,64.856438 188.003372,51.863148 188.003372,38.424423 
	C190.491669,38.424423 192.873001,38.424423 196.011780,38.424423 
	C196.011780,42.520603 196.011444,46.780285 196.011856,51.039963 
	C196.012619,59.203392 195.826752,67.374023 196.140732,75.525398 
	C196.223602,77.676575 197.849777,79.768295 199.186127,81.942711 
z"/>
<path fill="#0D7BDB" opacity="1.000000" stroke="none" 
	d="
M416.820679,68.275436 
	C413.977570,65.443237 410.954956,63.166862 408.925262,60.209148 
	C407.126099,57.587360 405.704346,54.281975 405.386505,51.149452 
	C404.502197,42.434139 409.061737,37.580353 417.275146,37.656494 
	C425.568481,37.733376 429.358795,42.376904 428.505005,51.866478 
	C426.340820,51.866478 424.132080,51.866478 421.928619,51.866478 
	C421.739075,51.560917 421.542114,51.299557 421.403168,51.010323 
	C420.466156,49.060093 419.795837,46.894405 418.461395,45.274418 
	C418.048645,44.773327 414.753967,45.531727 414.640778,46.090622 
	C414.142334,48.551231 413.441742,51.605644 414.467194,53.591385 
	C416.004639,56.568584 418.767792,59.000992 421.294495,61.360046 
	C425.972107,65.727333 429.365936,70.506821 429.038818,77.344467 
	C428.658142,85.302422 424.783203,89.309731 416.926727,89.352852 
	C409.393463,89.394203 405.417419,85.481071 405.100250,77.672684 
	C405.060425,76.691139 405.182129,75.703033 405.247772,74.322571 
	C407.565399,74.322571 409.791260,74.322571 412.361145,74.322571 
	C412.498260,75.466942 412.259216,76.996254 412.891083,77.946388 
	C413.923798,79.499313 415.523804,80.674980 416.884521,82.009773 
	C418.231384,80.477585 420.870728,78.741356 420.667480,77.453888 
	C420.180420,74.368637 418.357025,71.494354 416.820679,68.275436 
z"/>
<path fill="#0B7ADB" opacity="1.000000" stroke="none" 
	d="
M448.895569,37.985363 
	C451.525879,37.985363 453.674194,37.985363 456.141235,37.985363 
	C456.141235,40.376991 456.141235,42.453346 456.141235,44.981018 
	C453.678619,45.149174 451.266663,45.313873 448.289612,45.517155 
	C448.289612,59.838173 448.289612,74.040810 448.289612,88.626663 
	C445.349457,88.626663 442.973907,88.626663 440.025757,88.626663 
	C440.025757,74.398827 440.025757,60.183208 440.025757,45.567028 
	C437.072327,45.385002 434.647705,45.235565 431.831299,45.061981 
	C431.831299,42.881371 431.831299,40.826618 431.831299,37.985363 
	C437.270905,37.985363 442.842224,37.985363 448.895569,37.985363 
z"/>
<path fill="#0E7CDB" opacity="1.000000" stroke="none" 
	d="
M89.346214,56.148499 
	C89.619392,56.162502 89.892570,56.176510 90.557053,56.564156 
	C94.597160,58.613773 98.245987,60.289761 101.894806,61.965744 
	C105.421654,63.664925 108.439621,67.748322 112.940010,64.432396 
	C121.830406,69.791954 119.319092,79.172714 121.228638,87.020500 
	C114.619316,89.080666 113.551590,88.490738 110.759285,83.105301 
	C109.327599,80.344025 107.537773,77.463646 105.172363,75.547340 
	C97.473679,69.310333 89.447746,63.476013 81.516090,57.528950 
	C80.014145,56.402809 78.367126,55.470165 76.661880,53.589687 
	C82.232048,54.232468 85.061714,51.469044 87.369568,47.340904 
	C87.887352,46.414719 90.502312,46.660973 93.148415,46.190140 
	C91.658600,49.276676 90.667763,51.329453 89.224365,53.763554 
	C88.963272,54.812752 89.154747,55.480625 89.346214,56.148499 
z"/>
<path fill="#0D7BDB" opacity="1.000000" stroke="none" 
	d="
M239.879608,52.008060 
	C239.879562,61.968121 239.879562,71.430183 239.879562,81.557770 
	C244.294312,81.557770 248.341446,81.557770 252.704422,81.557770 
	C252.704422,84.276535 252.704422,86.333679 252.704422,88.711258 
	C245.893555,88.711258 239.169708,88.711258 232.134262,88.711258 
	C232.134262,71.881104 232.134262,55.201225 232.134262,38.250759 
	C234.600037,38.250759 236.868195,38.250759 239.879639,38.250759 
	C239.879639,42.655453 239.879639,47.082760 239.879608,52.008060 
z"/>
<path fill="#107DDB" opacity="1.000000" stroke="none" 
	d="
M225.879715,45.101681 
	C225.879654,59.854462 225.879654,74.119141 225.879654,88.702194 
	C223.077637,88.702194 220.702942,88.702194 218.065674,88.702194 
	C218.065674,71.918129 218.065674,55.351009 218.065674,38.378910 
	C220.421631,38.378910 222.809082,38.378910 225.879776,38.378910 
	C225.879776,40.413040 225.879776,42.513309 225.879715,45.101681 
z"/>
<path fill="#2D8CE0" opacity="1.000000" stroke="none" 
	d="
M140.780685,42.000210 
	C140.780670,59.952969 140.780823,77.405754 140.780731,94.858543 
	C140.780716,95.855843 141.038162,96.949081 140.713501,97.826653 
	C140.288040,98.976799 139.402542,99.956749 138.714905,101.009895 
	C138.022812,99.964798 136.744522,98.928123 136.729370,97.873299 
	C136.578979,87.403778 136.637131,76.931259 136.636932,66.459587 
	C136.636673,52.663574 136.578003,38.866924 136.727188,25.072525 
	C136.742294,23.675278 138.011810,22.291597 138.699188,20.901619 
	C139.392990,22.282660 140.625305,23.640711 140.685410,25.048805 
	C140.919159,30.523993 140.780731,36.015072 140.780685,42.000210 
z"/>
<path fill="#2488DE" opacity="1.000000" stroke="none" 
	d="
M102.282394,61.902634 
	C98.245987,60.289761 94.597160,58.613773 90.956772,56.656784 
	C91.110611,56.264240 91.256027,56.152706 91.882523,56.237610 
	C94.184044,56.282997 96.004486,56.131943 97.824928,55.980888 
	C101.048431,57.499119 101.048431,57.499119 103.569489,50.964989 
	C105.350983,54.051636 106.999977,56.276920 107.751801,58.772491 
	C107.893219,59.241913 104.455894,60.789471 102.282394,61.902634 
z"/>
<path fill="#147FDC" opacity="1.000000" stroke="none" 
	d="
M98.084106,55.737038 
	C96.004486,56.131943 94.184044,56.282997 92.142517,56.148357 
	C92.806679,53.556705 93.379478,51.047405 94.697067,49.022808 
	C95.459167,47.851768 97.421532,47.461853 98.843712,46.720390 
	C99.223557,48.092266 99.987778,49.494118 99.883720,50.828239 
	C99.760056,52.413628 98.889946,53.940792 98.084106,55.737038 
z"/>
<path fill="#CDE4F8" opacity="1.000000" stroke="none" 
	d="
M43.417027,61.987492 
	C42.138748,58.742081 41.243561,55.487453 40.987366,52.106499 
	C42.008354,52.204639 42.390347,52.429104 42.772343,52.653568 
	C43.609158,55.455456 44.445969,58.257347 45.303764,61.436996 
	C44.816536,61.869263 44.308327,61.923767 43.417027,61.987492 
z"/>
<path fill="#B3D5F4" opacity="1.000000" stroke="none" 
	d="
M294.505219,60.078823 
	C294.094421,58.639954 293.996155,57.198124 293.897919,55.756294 
	C294.272095,55.672642 294.646301,55.588989 295.020508,55.505337 
	C295.397308,56.742271 295.774109,57.979202 296.107086,59.590141 
	C295.648071,60.001385 295.232941,60.038624 294.505219,60.078823 
z"/>
<path fill="#147FDC" opacity="1.000000" stroke="none" 
	d="
M41.596863,43.872421 
	C41.929832,44.611816 41.929832,45.415154 41.929832,46.742535 
	C40.848339,46.068184 40.190331,45.657890 39.248871,45.115372 
	C39.731579,44.634216 40.497738,44.285290 41.596863,43.872421 
z"/>
<path fill="#147FDC" opacity="1.000000" stroke="none" 
	d="
M49.628876,40.111141 
	C49.611256,40.709370 49.189709,41.308849 48.472565,41.953327 
	C47.681995,41.665943 47.187031,41.333561 46.375946,41.077496 
	C46.059826,41.153816 46.021862,40.680321 46.009853,40.443115 
	C47.073544,40.174736 48.149246,40.143562 49.628876,40.111141 
z"/>
<path fill="#2488DE" opacity="1.000000" stroke="none" 
	d="
M89.327072,55.780861 
	C89.154747,55.480625 88.963272,54.812752 88.978531,54.049019 
	C89.226143,54.439850 89.267029,54.926537 89.327072,55.780861 
z"/>
<path fill="#147FDC" opacity="1.000000" stroke="none" 
	d="
M64.629471,85.288330 
	C65.126144,85.495644 65.546303,85.994392 65.983200,86.759964 
	C65.517616,86.544449 65.035294,86.062111 64.629471,85.288330 
z"/>
<path fill="#147FDC" opacity="1.000000" stroke="none" 
	d="
M42.832657,52.241562 
	C42.390347,52.429104 42.008354,52.204639 41.310982,51.874985 
	C41.142563,50.694771 41.289524,49.619743 41.436489,48.544720 
	C41.785610,48.528648 42.134735,48.512577 42.483860,48.496510 
	C42.620232,49.607525 42.756599,50.718544 42.832657,52.241562 
z"/>
<path fill="#EBF4FC" opacity="1.000000" stroke="none" 
	d="
M334.435913,68.915497 
	C334.708588,70.953751 334.929749,72.591408 334.941376,74.230545 
	C334.991577,81.317223 334.017853,82.162270 326.419556,81.414864 
	C326.419556,76.476822 326.419556,71.488243 326.419556,64.906380 
	C329.477081,66.308861 331.882507,67.412216 334.435913,68.915497 
z"/>
<path fill="#E7F2FB" opacity="1.000000" stroke="none" 
	d="
M327.963623,58.750393 
	C326.812378,54.551182 326.075439,50.378136 325.310944,46.048923 
	C329.738281,44.876678 333.282593,44.365131 333.899994,49.030930 
	C334.688110,54.986397 334.471100,58.914978 327.963623,58.750393 
z"/>
<path fill="#EBF4FC" opacity="1.000000" stroke="none" 
	d="
M174.422668,67.578354 
	C175.031784,70.182434 175.641922,72.457268 175.672287,74.739830 
	C175.759384,81.283936 174.358139,82.324181 167.118454,81.237907 
	C167.118454,76.404762 167.118454,71.513077 167.118454,65.656746 
	C169.620407,66.223877 171.889664,66.738258 174.422668,67.578354 
z"/>
<path fill="#E7F2FB" opacity="1.000000" stroke="none" 
	d="
M166.755493,52.923912 
	C166.755356,50.327347 166.755356,48.191528 166.755356,44.859676 
	C169.515930,45.576332 173.172272,45.624828 173.589920,46.812363 
	C174.612396,49.719608 174.859802,53.372437 173.972275,56.284218 
	C173.509995,57.800819 169.985367,58.384014 167.054184,59.759434 
	C166.906738,56.611195 166.831177,54.997929 166.755493,52.923912 
z"/>
<path fill="#F3F8FD" opacity="1.000000" stroke="none" 
	d="
M392.946411,58.041473 
	C392.944336,64.534279 392.963898,70.533745 392.930847,76.532921 
	C392.915070,79.396072 392.437286,82.008690 388.708710,82.014702 
	C384.836853,82.020950 384.709290,79.264130 384.707947,76.457710 
	C384.703766,67.791977 384.706665,59.126236 384.706512,50.460499 
	C384.706482,47.618649 384.936768,44.920307 388.790314,44.986359 
	C392.530457,45.050465 392.890350,47.715332 392.934174,50.548904 
	C392.970245,52.881447 392.944672,55.214943 392.946411,58.041473 
z"/>
<path fill="#EFF7FD" opacity="1.000000" stroke="none" 
	d="
M265.150055,46.708557 
	C270.871185,44.159340 273.112854,45.502319 273.165741,51.222321 
	C273.242310,59.506878 273.195129,67.792702 273.171631,76.077904 
	C273.168854,77.062569 273.339722,78.591385 272.818512,78.931908 
	C271.053589,80.084969 269.064240,81.024757 267.032440,81.519150 
	C266.665771,81.608368 265.109772,79.213898 265.091675,77.951920 
	C264.944397,67.680885 265.032440,57.406467 265.150055,46.708557 
z"/>
<path fill="#E7F2FB" opacity="1.000000" stroke="none" 
	d="
M355.305725,53.232845 
	C355.306519,51.932083 355.306000,51.098873 355.307953,50.265671 
	C355.314911,47.307140 355.985291,44.859787 359.666687,44.947731 
	C363.373352,45.036274 363.805298,47.684711 363.843933,50.520889 
	C363.893890,54.186337 363.860626,57.852932 363.861298,61.519035 
	C363.862122,66.184998 363.900238,70.851402 363.846893,75.516754 
	C363.812286,78.540817 364.035309,81.942558 359.628784,82.026680 
	C355.179962,82.111618 355.314423,78.778938 355.309418,75.697060 
	C355.297546,68.364861 355.305542,61.032623 355.305725,53.232845 
z"/>
</svg>