<svg version="1.1" id="Layer_1" xmlns="http://www.w3.org/2000/svg" xmlns:xlink="http://www.w3.org/1999/xlink" x="0px" y="0px"
	 width="100%" viewBox="0 0 113 70" enable-background="new 0 0 113 70" xml:space="preserve">
<path fill="#F8FBFE" opacity="1.000000" stroke="none" 
	d="
M1.000000,53.000000 
	C1.000000,35.690105 1.000000,18.380207 1.000000,1.035155 
	C38.592274,1.035155 76.184586,1.035155 113.888451,1.035155 
	C113.888451,24.226940 113.888451,47.454597 113.888451,70.841125 
	C76.333900,70.841125 38.666988,70.841125 1.000000,70.841125 
	C1.000000,68.308174 1.000000,65.645134 1.362600,62.512100 
	C4.406151,59.537319 7.087104,57.032528 10.786284,53.576420 
	C9.170892,58.609146 7.901254,62.564686 6.645048,66.478378 
	C15.758304,68.009697 17.462959,66.406837 16.696520,57.055374 
	C16.511578,54.798855 16.669035,52.514275 16.669035,50.242596 
	C17.371737,50.160278 18.074440,50.077961 18.777142,49.995644 
	C20.112015,55.418293 21.446890,60.840942 22.923544,66.839546 
	C23.170603,66.855392 24.464588,67.001152 25.759565,67.010551 
	C31.292093,67.050728 32.115852,65.933266 29.998621,60.918247 
	C28.772295,58.013489 27.096096,55.296509 25.904804,52.379662 
	C24.451628,48.821587 22.083984,45.340965 23.435230,41.041180 
	C28.476139,49.835686 33.299667,58.250942 38.125225,66.669739 
	C40.532265,66.669739 43.254807,66.669739 47.329689,66.669739 
	C45.410900,63.628807 44.146221,61.444408 42.708118,59.380875 
	C39.120663,54.233212 35.454369,49.140488 32.218128,44.007454 
	C33.147110,43.955963 33.677681,43.922729 34.457695,44.107712 
	C35.757187,45.819256 36.674740,47.430523 37.880566,48.785187 
	C42.729778,54.232948 47.668152,59.601349 52.512405,65.303131 
	C52.967613,66.082680 53.483990,66.558174 54.423561,67.137161 
	C57.076801,67.139572 59.306843,67.038498 62.513447,66.893150 
	C61.148258,64.597824 60.517696,62.873043 59.342148,61.689632 
	C56.201099,58.527584 52.555370,55.838169 49.609341,52.518036 
	C45.502357,47.889542 41.849049,42.858494 38.338657,38.005737 
	C39.349834,38.020287 40.023941,38.028820 40.837891,38.357841 
	C44.734371,42.653797 48.339748,46.787357 52.286850,50.563736 
	C56.964985,55.039524 62.882584,58.543579 66.507179,63.702423 
	C69.887871,68.514130 73.103363,67.776169 78.951767,66.647064 
	C75.850876,63.254898 73.738632,60.407375 71.104912,58.175133 
	C65.655647,53.556553 59.614319,49.600620 54.421104,44.727795 
	C50.631958,41.172409 47.262596,36.891106 44.738529,32.358482 
	C42.884373,29.028870 44.663666,27.643372 48.768417,28.403803 
	C47.244999,34.980946 51.724495,38.567020 55.891705,41.978149 
	C61.421783,46.504871 67.407196,50.471039 73.028404,54.892372 
	C76.403343,57.546917 80.533562,60.047272 82.401405,63.621754 
	C85.159676,68.900246 88.577637,68.280067 92.822586,67.306168 
	C92.617249,62.851273 90.662628,59.562275 85.691162,55.898232 
	C77.396561,49.784996 68.925140,43.909622 60.695255,37.712212 
	C58.886639,36.350258 57.777771,34.059071 55.691986,31.343424 
	C69.066772,32.156647 69.793266,31.908094 71.428299,26.837896 
	C68.002457,26.642992 64.226540,25.490768 61.111145,26.460518 
	C55.829868,28.104458 52.580631,24.498884 49.268620,22.465872 
	C44.911781,19.791515 41.013458,18.573910 35.895210,20.085983 
	C35.333076,20.057858 35.107925,20.053249 34.531960,20.022144 
	C32.758450,21.250029 31.335752,22.504410 29.583052,23.835594 
	C28.483280,24.265778 27.713512,24.619160 26.594843,25.180153 
	C24.691275,25.839575 22.518957,25.789818 21.680058,26.822874 
	C15.205877,34.795433 8.983326,42.972610 2.721032,51.115780 
	C2.501592,51.401131 2.683030,51.994766 2.709426,52.446571 
	C2.741227,52.448433 2.665512,52.448494 2.360046,52.410950 
	C1.703053,52.582268 1.351527,52.791134 1.000000,53.000000 
M86.135818,35.353359 
	C86.553040,34.122612 87.294228,32.895329 87.307411,31.660271 
	C87.324814,30.030523 86.771141,28.394682 86.462959,26.761456 
	C85.002716,27.851120 83.542480,28.940783 81.462395,30.200033 
	C81.435257,30.806608 81.408127,31.413185 81.064751,32.629772 
	C80.727303,33.469879 80.389854,34.309982 79.392296,35.312607 
	C78.584671,35.571453 77.777039,35.830303 76.875443,35.311253 
	C77.844810,32.664265 78.814178,30.017273 79.783546,27.370283 
	C79.377800,26.962334 78.972061,26.554384 78.566322,26.146435 
	C76.732742,27.528996 74.965874,29.014229 73.044937,30.262344 
	C71.445312,31.301687 69.702881,32.150440 67.948906,32.911114 
	C67.026726,33.311047 65.944206,33.341259 63.803047,33.759190 
	C66.075264,35.320301 67.431389,36.185646 68.716637,37.145859 
	C76.781204,43.170902 84.956490,49.059246 92.807373,55.351845 
	C95.181053,57.254379 97.568443,60.045544 98.332207,62.867416 
	C100.064545,69.267754 104.194771,68.272461 109.010803,67.494507 
	C107.088715,59.415695 109.813370,50.046627 100.823463,44.689873 
	C95.512413,47.330650 91.975578,43.334465 88.826988,40.757374 
	C91.054398,40.331333 93.281799,39.905293 95.509216,39.479252 
	C94.409554,36.919922 93.309891,34.360588 91.717392,30.654224 
	C88.842628,37.480755 88.842628,37.480755 86.135818,35.353359 
z"/>
<path fill="#127EDC" opacity="1.000000" stroke="none" 
	d="
M31.819717,44.025715 
	C35.454369,49.140488 39.120663,54.233212 42.708118,59.380875 
	C44.146221,61.444408 45.410900,63.628807 47.329689,66.669739 
	C43.254807,66.669739 40.532265,66.669739 38.125225,66.669739 
	C33.299667,58.250942 28.476139,49.835686 23.435230,41.041180 
	C22.083984,45.340965 24.451628,48.821587 25.904804,52.379662 
	C27.096096,55.296509 28.772295,58.013489 29.998621,60.918247 
	C32.115852,65.933266 31.292093,67.050728 25.759565,67.010551 
	C24.464588,67.001152 23.170603,66.855392 22.923544,66.839546 
	C21.446890,60.840942 20.112015,55.418293 18.777142,49.995644 
	C18.074440,50.077961 17.371737,50.160278 16.669035,50.242596 
	C16.669035,52.514275 16.511578,54.798855 16.696520,57.055374 
	C17.462959,66.406837 15.758304,68.009697 6.645048,66.478378 
	C7.901254,62.564686 9.170892,58.609146 10.786284,53.576420 
	C7.087104,57.032528 4.406151,59.537319 1.362600,62.021053 
	C1.000000,59.299988 1.000000,56.599972 1.000000,53.449982 
	C1.351527,52.791134 1.703053,52.582268 2.563996,52.518822 
	C3.210971,52.603138 3.348529,52.542034 3.486088,52.480934 
	C3.354818,52.406078 3.225885,52.277294 3.091620,52.271473 
	C2.956380,52.265610 2.815842,52.381931 2.677625,52.444714 
	C2.683030,51.994766 2.501592,51.401131 2.721032,51.115780 
	C8.983326,42.972610 15.205877,34.795433 21.680058,26.822874 
	C22.518957,25.789818 24.691275,25.839575 26.880346,25.313095 
	C28.179285,25.645170 28.843821,26.051916 29.913057,26.706367 
	C29.913057,25.380262 29.913057,24.569527 29.913057,23.758791 
	C31.335752,22.504410 32.758450,21.250029 34.420757,20.418427 
	C32.275616,27.241961 34.660458,32.713947 38.001587,37.999722 
	C41.849049,42.858494 45.502357,47.889542 49.609341,52.518036 
	C52.555370,55.838169 56.201099,58.527584 59.342148,61.689632 
	C60.517696,62.873043 61.148258,64.597824 62.513447,66.893150 
	C59.306843,67.038498 57.076801,67.139572 54.402634,66.859711 
	C53.496861,65.985535 53.035217,65.492302 52.573578,64.999077 
	C47.668152,59.601349 42.729778,54.232948 37.880566,48.785187 
	C36.674740,47.430523 35.757187,45.819256 34.432053,43.727684 
	C33.021763,39.646545 31.886555,36.163658 30.798679,32.295441 
	C29.738783,31.150579 28.631554,30.391047 27.524323,29.631516 
	C27.709730,30.434505 27.895138,31.237495 28.032913,32.446331 
	C29.263428,36.576691 30.541573,40.301201 31.819717,44.025715 
z"/>
<path fill="#117DDB" opacity="1.000000" stroke="none" 
	d="
M36.232193,20.109501 
	C41.013458,18.573910 44.911781,19.791515 49.268620,22.465872 
	C52.580631,24.498884 55.829868,28.104458 61.111145,26.460518 
	C64.226540,25.490768 68.002457,26.642992 71.428299,26.837896 
	C69.793266,31.908094 69.066772,32.156647 55.691986,31.343424 
	C57.777771,34.059071 58.886639,36.350258 60.695255,37.712212 
	C68.925140,43.909622 77.396561,49.784996 85.691162,55.898232 
	C90.662628,59.562275 92.617249,62.851273 92.822586,67.306168 
	C88.577637,68.280067 85.159676,68.900246 82.401405,63.621754 
	C80.533562,60.047272 76.403343,57.546917 73.028404,54.892372 
	C67.407196,50.471039 61.421783,46.504871 55.891705,41.978149 
	C51.724495,38.567020 47.244999,34.980946 48.768417,28.403803 
	C44.663666,27.643372 42.884373,29.028870 44.738529,32.358482 
	C47.262596,36.891106 50.631958,41.172409 54.421104,44.727795 
	C59.614319,49.600620 65.655647,53.556553 71.104912,58.175133 
	C73.738632,60.407375 75.850876,63.254898 78.951767,66.647064 
	C73.103363,67.776169 69.887871,68.514130 66.507179,63.702423 
	C62.882584,58.543579 56.964985,55.039524 52.286850,50.563736 
	C48.339748,46.787357 44.734371,42.653797 40.813438,38.008003 
	C37.474987,32.031261 35.046909,26.533577 36.232193,20.109501 
z"/>
<path fill="#0D7BDB" opacity="1.000000" stroke="none" 
	d="
M82.082245,30.030449 
	C83.542480,28.940783 85.002716,27.851120 86.462959,26.761457 
	C86.771141,28.394682 87.324814,30.030523 87.307411,31.660271 
	C87.294228,32.895329 86.553040,34.122612 85.561798,35.716095 
	C83.762352,36.647491 82.536919,37.216145 80.531357,38.146816 
	C82.561127,39.363041 83.864868,40.144234 85.529633,40.975960 
	C86.605492,41.034920 87.320335,41.043339 88.036804,41.020432 
	C88.038429,40.989101 87.977318,40.975136 87.977318,40.975136 
	C91.975578,43.334465 95.512413,47.330650 100.823463,44.689873 
	C109.813370,50.046627 107.088715,59.415695 109.010803,67.494507 
	C104.194771,68.272461 100.064545,69.267754 98.332207,62.867416 
	C97.568443,60.045544 95.181053,57.254379 92.807373,55.351845 
	C84.956490,49.059246 76.781204,43.170902 68.716637,37.145859 
	C67.431389,36.185646 66.075264,35.320301 63.803047,33.759190 
	C65.944206,33.341259 67.026726,33.311047 67.948906,32.911114 
	C69.702881,32.150440 71.445312,31.301687 73.044937,30.262344 
	C74.965874,29.014229 76.732742,27.528996 78.566322,26.146435 
	C78.972061,26.554384 79.377800,26.962334 79.783546,27.370283 
	C78.814178,30.017273 77.844810,32.664265 76.985825,36.033310 
	C77.746162,37.083076 78.396126,37.410793 79.046082,37.738510 
	C79.381523,36.875702 79.716965,36.012894 80.052414,35.150085 
	C80.389854,34.309982 80.727303,33.469879 81.481720,32.275322 
	C81.959877,31.290730 82.021065,30.660591 82.082245,30.030449 
z"/>
<path fill="#2186DE" opacity="1.000000" stroke="none" 
	d="
M85.168610,40.925426 
	C83.864868,40.144234 82.561127,39.363041 80.531357,38.146816 
	C82.536919,37.216145 83.762352,36.647491 85.313568,36.025330 
	C88.842628,37.480755 88.842628,37.480755 91.717392,30.654224 
	C93.309891,34.360588 94.409554,36.919922 95.509216,39.479252 
	C93.281799,39.905293 91.054398,40.331333 88.402153,40.866257 
	C87.977318,40.975136 88.038429,40.989101 87.994415,40.688957 
	C87.023140,40.567684 86.095871,40.746555 85.168610,40.925426 
z"/>
<path fill="#E2EFFA" opacity="1.000000" stroke="none" 
	d="
M35.895210,20.085983 
	C35.046909,26.533577 37.474987,32.031261 40.673595,37.687508 
	C40.023941,38.028820 39.349834,38.020287 38.338657,38.005737 
	C34.660458,32.713947 32.275616,27.241961 34.771572,20.444923 
	C35.107925,20.053249 35.333076,20.057858 35.895210,20.085983 
z"/>
<path fill="#D0E5F8" opacity="1.000000" stroke="none" 
	d="
M30.751345,32.680771 
	C31.886555,36.163658 33.021763,39.646545 34.182610,43.509464 
	C33.677681,43.922729 33.147110,43.955963 32.218128,44.007454 
	C30.541573,40.301201 29.263428,36.576691 28.386917,32.423294 
	C29.442816,32.223198 30.097080,32.451984 30.751345,32.680771 
z"/>
<path fill="#1A82DD" opacity="1.000000" stroke="none" 
	d="
M79.722351,35.231346 
	C79.716965,36.012894 79.381523,36.875702 79.046082,37.738510 
	C78.396126,37.410793 77.746162,37.083076 77.032806,36.422256 
	C77.777039,35.830303 78.584671,35.571453 79.722351,35.231346 
z"/>
<path fill="#137EDC" opacity="1.000000" stroke="none" 
	d="
M29.583052,23.835594 
	C29.913057,24.569527 29.913057,25.380262 29.913057,26.706367 
	C28.843821,26.051916 28.179285,25.645170 27.229248,25.105484 
	C27.713512,24.619160 28.483280,24.265778 29.583052,23.835594 
z"/>
<path fill="#1A82DD" opacity="1.000000" stroke="none" 
	d="
M81.772324,30.115242 
	C82.021065,30.660591 81.959877,31.290730 81.639847,31.970314 
	C81.408127,31.413185 81.435257,30.806608 81.772324,30.115242 
z"/>
<path fill="#137EDC" opacity="1.000000" stroke="none" 
	d="
M52.512405,65.303131 
	C53.035217,65.492302 53.496861,65.985535 53.979431,66.756210 
	C53.483990,66.558174 52.967613,66.082680 52.512405,65.303131 
z"/>
<path fill="#67ACE8" opacity="1.000000" stroke="none" 
	d="
M2.709426,52.446571 
	C2.815842,52.381931 2.956380,52.265610 3.091620,52.271473 
	C3.225885,52.277294 3.354818,52.406078 3.486088,52.480934 
	C3.348529,52.542034 3.210971,52.603138 2.869463,52.556366 
	C2.665512,52.448494 2.741227,52.448433 2.709426,52.446571 
z"/>
<path fill="#137EDC" opacity="1.000000" stroke="none" 
	d="
M30.798679,32.295441 
	C30.097080,32.451984 29.442816,32.223198 28.434549,32.017448 
	C27.895138,31.237495 27.709730,30.434505 27.524323,29.631516 
	C28.631554,30.391047 29.738783,31.150579 30.798679,32.295441 
z"/>
<path fill="#F8FBFE" opacity="1.000000" stroke="none" 
	d="
M85.529633,40.975960 
	C86.095871,40.746555 87.023140,40.567684 87.992783,40.720284 
	C87.320335,41.043339 86.605492,41.034920 85.529633,40.975960 
z"/>
</svg>